#!OML:ASF H:\Dans Jumps\Project 1\Capture day 1\Session 1\subject.ASF
:FULLY-SPECIFIED
:DEGREES
685
root 0.372313 17.7808 2.91883 6.66806 -1.42613 -1.31068
lowerback -3.33666 0.0506972 -0.295665
upperback 2.01965 0.0334727 1.3298
thorax 3.95129 -0.0104417 1.53925
lowerneck -13.4807 0.194077 -2.03006
upperneck 23.9907 0.640479 0.485069
head 9.82091 0.166744 0.591641
rclavicle -1.2921e-015 -8.94531e-015
rhumerus -25.678 -16.2326 -81.4273
rradius 22.7401
rwrist 35.4572
rhand -21.3414 -28.2985
rfingers 7.12502
rthumb 5.04474 -58.2185
lclavicle -1.2921e-015 -8.94531e-015
lhumerus -21.1842 3.71995 88.4427
lradius 14.021
lwrist -2.04479
lhand -25.6143 -7.76429
lfingers 7.12502
lthumb 0.91827 22.2135
rfemur -13.5303 -1.96468 19.5645
rtibia 20.1062
rfoot -11.6058 -0.0774125
rtoes 17.7653
lfemur -9.63077 5.87332 -18.0166
ltibia 15.3707
lfoot -8.86776 6.33137
ltoes 2.38517
686
root 0.372681 17.7806 2.91899 6.65687 -1.4172 -1.32011
lowerback -3.34568 0.050463 -0.292765
upperback 2.017 0.0327974 1.33536
thorax 3.95368 -0.0107797 1.54334
lowerneck -13.4723 0.196693 -2.03842
upperneck 23.9678 0.644077 0.492245
head 9.81103 0.168672 0.595858
rclavicle 9.93923e-017 -4.96962e-015
rhumerus -25.6939 -16.2319 -81.422
rradius 22.7521
rwrist 35.4396
rhand -21.3226 -28.2985
rfingers 7.12502
rthumb 5.06286 -58.218
lclavicle 9.93923e-017 -4.96962e-015
lhumerus -21.1997 3.74894 88.4434
lradius 14.0057
lwrist -2.0581
lhand -25.6197 -7.73032
lfingers 7.12502
lthumb 0.913059 22.2475
rfemur -13.5144 -1.96492 19.574
rtibia 20.1038
rfoot -11.6062 -0.0863284
rtoes 17.7528
lfemur -9.62717 5.86832 -18.0054
ltibia 15.3878
lfoot -8.87447 6.33035
ltoes 2.38801
687
root 0.373164 17.7804 2.91923 6.64651 -1.40997 -1.32865
lowerback -3.35424 0.0500625 -0.289016
upperback 2.01442 0.0318829 1.34022
thorax 3.95588 -0.011203 1.54621
lowerneck -13.4639 0.198496 -2.05338
upperneck 23.9457 0.647222 0.503016
head 9.80139 0.170197 0.602391
rclavicle -3.52843e-015 1.09332e-014
rhumerus -25.7104 -16.2314 -81.4182
rradius 22.7625
rwrist 35.4243
rhand -21.3116 -28.3003
rfingers 7.12502
rthumb 5.07348 -58.2195
lclavicle -3.52843e-015 1.09332e-014
lhumerus -21.2224 3.7706 88.4434
lradius 13.9951
lwrist -2.06426
lhand -25.6212 -7.71149
lfingers 7.12502
lthumb 0.911569 22.2663
rfemur -13.4988 -1.96751 19.5821
rtibia 20.0995
rfoot -11.6055 -0.0903435
rtoes 17.7417
lfemur -9.62531 5.86626 -17.996
ltibia 15.4074
lfoot -8.88488 6.32828
ltoes 2.39797
688
root 0.373704 17.7802 2.91946 6.63627 -1.4018 -1.33853
lowerback -3.36274 0.0493248 -0.283494
upperback 2.01336 0.0304067 1.34522
thorax 3.95964 -0.0118745 1.54821
lowerneck -13.4623 0.200902 -2.06328
upperneck 23.9262 0.651347 0.509156
head 9.79403 0.172081 0.606607
rclavicle 5.41688e-015 -8.94531e-015
rhumerus -25.7229 -16.2254 -81.4179
rradius 22.773
rwrist 35.4025
rhand -21.3066 -28.2993
rfingers 7.12502
rthumb 5.07829 -58.2184
lclavicle 5.41688e-015 -8.94531e-015
lhumerus -21.2429 3.78771 88.4443
lradius 13.9848
lwrist -2.06738
lhand -25.6241 -7.69084
lfingers 7.12502
lthumb 0.908813 22.287
rfemur -13.483 -1.97003 19.5916
rtibia 20.0941
rfoot -11.6041 -0.0952452
rtoes 17.7294
lfemur -9.62449 5.86407 -17.9853
ltibia 15.4282
lfoot -8.89796 6.32592
ltoes 2.40918
689
root 0.374318 17.7801 2.91979 6.62572 -1.3931 -1.34496
lowerback -3.37218 0.0479917 -0.280581
upperback 2.01218 0.0282871 1.34961
thorax 3.96384 -0.0129287 1.55098
lowerneck -13.4601 0.203001 -2.07436
upperneck 23.9083 0.655433 0.514837
head 9.78712 0.173776 0.610864
rclavicle -7.28049e-015 4.57205e-015
rhumerus -25.7364 -16.2271 -81.414
rradius 22.7806
rwrist 35.3912
rhand -21.3044 -28.2893
rfingers 7.12502
rthumb 5.08045 -58.2084
lclavicle -7.28049e-015 4.57205e-015
lhumerus -21.2662 3.80629 88.4448
lradius 13.9775
lwrist -2.07303
lhand -25.6232 -7.6749
lfingers 7.12502
lthumb 0.909622 22.3029
rfemur -13.4668 -1.97282 19.5966
rtibia 20.0888
rfoot -11.6029 -0.0993343
rtoes 17.7219
lfemur -9.62272 5.86005 -17.9787
ltibia 15.4477
lfoot -8.91122 6.3241
ltoes 2.42522
690
root 0.374959 17.78 2.92015 6.61502 -1.38397 -1.34716
lowerback -3.38213 0.0460522 -0.282187
upperback 2.01159 0.0256113 1.35312
thorax 3.96894 -0.0143758 1.55537
lowerneck -13.4637 0.206511 -2.07885
upperneck 23.8957 0.661801 0.513751
head 9.78326 0.176307 0.611974
rclavicle -1.39149e-015 8.94531e-015
rhumerus -25.7477 -16.2327 -81.4091
rradius 22.784
rwrist 35.3857
rhand -21.3009 -28.2823
rfingers 7.12502
rthumb 5.08382 -58.2013
lclavicle -1.39149e-015 8.94531e-015
lhumerus -21.2887 3.82254 88.4458
lradius 13.972
lwrist -2.07565
lhand -25.6177 -7.65031
lfingers 7.12502
lthumb 0.914971 22.3275
rfemur -13.4507 -1.97505 19.5968
rtibia 20.0844
rfoot -11.6023 -0.106101
rtoes 17.7091
lfemur -9.62013 5.85555 -17.977
ltibia 15.4652
lfoot -8.9234 6.32182
ltoes 2.44074
691
root 0.375617 17.7798 2.92054 6.60496 -1.37499 -1.3497
lowerback -3.39205 0.0444792 -0.282769
upperback 2.00879 0.0233875 1.35685
thorax 3.97173 -0.0155525 1.55942
lowerneck -13.4603 0.206716 -2.08739
upperneck 23.8821 0.663263 0.516801
head 9.77772 0.176684 0.614578
rclavicle 1.54058e-015 1.70955e-014
rhumerus -25.7636 -16.2446 -81.4002
rradius 22.7837
rwrist 35.3878
rhand -21.2963 -28.2801
rfingers 7.12502
rthumb 5.08822 -58.199
lclavicle 1.54058e-015 1.70955e-014
lhumerus -21.3098 3.83071 88.4486
lradius 13.962
lwrist -2.07042
lhand -25.6143 -7.64379
lfingers 7.12502
lthumb 0.918264 22.334
rfemur -13.436 -1.97614 19.5973
rtibia 20.0818
rfoot -11.6028 -0.11399
rtoes 17.6959
lfemur -9.61733 5.85085 -17.975
ltibia 15.4801
lfoot -8.93258 6.31937
ltoes 2.45009
692
root 0.376255 17.7796 2.92085 6.59528 -1.36704 -1.35126
lowerback -3.40104 0.0435975 -0.2842
upperback 2.00535 0.0221768 1.35961
thorax 3.9733 -0.0162254 1.56301
lowerneck -13.461 0.206717 -2.08935
upperneck 23.8743 0.664457 0.514039
head 9.77505 0.176821 0.614058
rclavicle -4.24902e-015 4.77083e-015
rhumerus -25.7792 -16.2638 -81.3903
rradius 22.7798
rwrist 35.397
rhand -21.2871 -28.2774
rfingers 7.12502
rthumb 5.09715 -58.1961
lclavicle -4.24902e-015 4.77083e-015
lhumerus -21.3293 3.84514 88.4482
lradius 13.9503
lwrist -2.07293
lhand -25.6059 -7.64696
lfingers 7.12502
lthumb 0.926413 22.3308
rfemur -13.4224 -1.97451 19.5966
rtibia 20.0806
rfoot -11.6039 -0.124387
rtoes 17.6842
lfemur -9.61509 5.84487 -17.9741
ltibia 15.4945
lfoot -8.93913 6.31873
ltoes 2.45896
693
root 0.376928 17.7794 2.92103 6.58657 -1.35732 -1.35213
lowerback -3.4098 0.0423284 -0.285687
upperback 2.002 0.0204742 1.36177
thorax 3.97483 -0.0171359 1.56598
lowerneck -13.4683 0.20705 -2.08545
upperneck 23.8719 0.666085 0.506581
head 9.77565 0.177107 0.611016
rclavicle -2.95692e-015 -1.35174e-014
rhumerus -25.7924 -16.2924 -81.3788
rradius 22.7709
rwrist 35.4162
rhand -21.2777 -28.2736
rfingers 7.12502
rthumb 5.10624 -58.1921
lclavicle -2.95692e-015 -1.35174e-014
lhumerus -21.3464 3.86271 88.4468
lradius 13.9378
lwrist -2.07744
lhand -25.6013 -7.66329
lfingers 7.12502
lthumb 0.93082 22.3144
rfemur -13.4104 -1.9759 19.5954
rtibia 20.0802
rfoot -11.605 -0.134354
rtoes 17.6727
lfemur -9.6151 5.8423 -17.9743
ltibia 15.5099
lfoot -8.94532 6.31332
ltoes 2.45939
